<svg width="34" height="34" viewBox="0 0 34 34" fill="none" xmlns="http://www.w3.org/2000/svg">
<rect width="34" height="34" rx="17" fill="#F1F2F3"/>
<path fill-rule="evenodd" clip-rule="evenodd" d="M17.9979 16.0403H23.0262C23.564 16.0403 24 16.4763 24 17.0141C24 17.5519 23.564 17.9879 23.0262 17.9879H17.9979V22.9875C17.9979 23.5467 17.5446 24 16.9854 24C16.4263 24 15.9729 23.5467 15.9729 22.9875V17.9879H10.9738C10.436 17.9879 10 17.5519 10 17.0141C10 16.4763 10.436 16.0403 10.9738 16.0403H15.9729V11.0125C15.9729 10.4533 16.4263 10 16.9854 10C17.5446 10 17.9979 10.4533 17.9979 11.0125V16.0403Z" fill="#616F82"/>
</svg>
