<svg width="34" height="34" viewBox="0 0 34 34" fill="none" xmlns="http://www.w3.org/2000/svg">
<rect width="34" height="34" rx="17" fill="#F1F2F3"/>
<path fill-rule="evenodd" clip-rule="evenodd" d="M16.9265 15.5153L20.4821 11.9598C20.8624 11.5795 21.4789 11.5795 21.8592 11.9598C22.2395 12.3401 22.2395 12.9566 21.8592 13.3369L18.3037 16.8925L21.8389 20.4277C22.2343 20.8231 22.2343 21.4642 21.8389 21.8596C21.4435 22.255 20.8025 22.255 20.4071 21.8596L16.8718 18.3243L13.3369 21.8593C12.9566 22.2396 12.34 22.2396 11.9597 21.8593C11.5794 21.479 11.5794 20.8624 11.9597 20.4821L15.4947 16.9472L11.9394 13.392C11.544 12.9966 11.544 12.3555 11.9394 11.9601C12.3348 11.5647 12.9759 11.5647 13.3713 11.9601L16.9265 15.5153Z" fill="#616F82"/>
</svg>
