<svg width="34" height="34" viewBox="0 0 34 34" fill="none" xmlns="http://www.w3.org/2000/svg">
<circle cx="17" cy="17" r="17" fill="#F1F2F3"/>
<path fill-rule="evenodd" clip-rule="evenodd" d="M15.6646 11.5C15.2503 11.5 14.9146 11.8358 14.9146 12.25C14.9146 12.6642 15.2503 13 15.6646 13H24.1646C24.5788 13 24.9146 12.6642 24.9146 12.25C24.9146 11.8358 24.5788 11.5 24.1646 11.5H15.6646ZM17.6646 16.9532C17.2503 16.9532 16.9146 17.289 16.9146 17.7032C16.9146 18.1174 17.2503 18.4532 17.6646 18.4532H24.1646C24.5788 18.4532 24.9146 18.1174 24.9146 17.7032C24.9146 17.289 24.5788 16.9532 24.1646 16.9532H17.6646ZM18.9146 23.25C18.9146 22.8358 19.2503 22.5 19.6646 22.5H24.1646C24.5788 22.5 24.9146 22.8358 24.9146 23.25C24.9146 23.6642 24.5788 24 24.1646 24H19.6646C19.2503 24 18.9146 23.6642 18.9146 23.25ZM13.8947 21.7356C14.0351 21.8625 14.0351 22.0666 13.8947 22.1892L11.7482 24.0335C11.6129 24.1604 11.3871 24.1604 11.2515 24.0335L9.10528 22.1892C8.96491 22.0668 8.96491 21.8625 9.10528 21.7356C9.24058 21.613 9.46662 21.613 9.60699 21.7356L11.1462 23.0355L11.1437 12.1258C11.1437 11.9489 11.3043 11.8083 11.5 11.8083C11.6957 11.8083 11.8512 11.9489 11.8515 12.1258L11.8541 23.0355L13.3981 21.7356C13.5334 21.613 13.7591 21.613 13.8947 21.7356Z" fill="#616F82"/>
<path d="M13.8947 22.1892L14.0577 22.3788L14.0592 22.3775L13.8947 22.1892ZM13.8947 21.7356L14.0624 21.5501H14.0624L13.8947 21.7356ZM11.7482 24.0335L11.5851 23.8437L11.5772 23.8511L11.7482 24.0335ZM11.2515 24.0335L11.4225 23.8508L11.4144 23.8439L11.2515 24.0335ZM9.10528 22.1892L8.94102 22.3776L8.94234 22.3788L9.10528 22.1892ZM9.10528 21.7356L9.27293 21.921L9.27314 21.9209L9.10528 21.7356ZM9.60699 21.7356L9.4425 21.9239L9.44569 21.9266L9.60699 21.7356ZM11.1462 23.0355L10.9849 23.2265L11.3964 23.5739L11.3962 23.0354L11.1462 23.0355ZM11.1437 12.1258H10.8937V12.1259L11.1437 12.1258ZM11.8515 12.1258L12.1015 12.1258L12.1015 12.1254L11.8515 12.1258ZM11.8541 23.0355L11.6041 23.0355L11.6042 23.5726L12.0151 23.2267L11.8541 23.0355ZM13.3981 21.7356L13.5592 21.927L13.5659 21.9209L13.3981 21.7356ZM15.1646 12.25C15.1646 11.9739 15.3884 11.75 15.6646 11.75V11.25C15.1123 11.25 14.6646 11.6977 14.6646 12.25H15.1646ZM15.6646 12.75C15.3884 12.75 15.1646 12.5261 15.1646 12.25H14.6646C14.6646 12.8023 15.1123 13.25 15.6646 13.25V12.75ZM24.1646 12.75H15.6646V13.25H24.1646V12.75ZM24.6646 12.25C24.6646 12.5261 24.4407 12.75 24.1646 12.75V13.25C24.7168 13.25 25.1646 12.8023 25.1646 12.25H24.6646ZM24.1646 11.75C24.4407 11.75 24.6646 11.9739 24.6646 12.25H25.1646C25.1646 11.6977 24.7168 11.25 24.1646 11.25V11.75ZM15.6646 11.75H24.1646V11.25H15.6646V11.75ZM17.1646 17.7032C17.1646 17.4271 17.3884 17.2032 17.6646 17.2032V16.7032C17.1123 16.7032 16.6646 17.1509 16.6646 17.7032H17.1646ZM17.6646 18.2032C17.3884 18.2032 17.1646 17.9794 17.1646 17.7032H16.6646C16.6646 18.2555 17.1123 18.7032 17.6646 18.7032V18.2032ZM24.1646 18.2032H17.6646V18.7032H24.1646V18.2032ZM24.6646 17.7032C24.6646 17.9794 24.4407 18.2032 24.1646 18.2032V18.7032C24.7168 18.7032 25.1646 18.2555 25.1646 17.7032H24.6646ZM24.1646 17.2032C24.4407 17.2032 24.6646 17.4271 24.6646 17.7032H25.1646C25.1646 17.1509 24.7168 16.7032 24.1646 16.7032V17.2032ZM17.6646 17.2032H24.1646V16.7032H17.6646V17.2032ZM19.6646 22.25C19.1123 22.25 18.6646 22.6977 18.6646 23.25H19.1646C19.1646 22.9739 19.3884 22.75 19.6646 22.75V22.25ZM24.1646 22.25H19.6646V22.75H24.1646V22.25ZM25.1646 23.25C25.1646 22.6977 24.7168 22.25 24.1646 22.25V22.75C24.4407 22.75 24.6646 22.9739 24.6646 23.25H25.1646ZM24.1646 24.25C24.7168 24.25 25.1646 23.8023 25.1646 23.25H24.6646C24.6646 23.5261 24.4407 23.75 24.1646 23.75V24.25ZM19.6646 24.25H24.1646V23.75H19.6646V24.25ZM18.6646 23.25C18.6646 23.8023 19.1123 24.25 19.6646 24.25V23.75C19.3884 23.75 19.1646 23.5261 19.1646 23.25H18.6646ZM14.0592 22.3775C14.3155 22.1535 14.3106 21.7746 14.0624 21.5501L13.7271 21.921C13.7464 21.9386 13.75 21.9546 13.75 21.964C13.75 21.9731 13.7468 21.9864 13.7303 22.0009L14.0592 22.3775ZM11.9111 24.2231L14.0576 22.3788L13.7318 21.9995L11.5852 23.8439L11.9111 24.2231ZM11.0807 24.2161C11.3123 24.4328 11.6876 24.4331 11.9192 24.2159L11.5772 23.8511C11.5381 23.8877 11.4619 23.888 11.4223 23.851L11.0807 24.2161ZM8.94234 22.3788L11.0886 24.2231L11.4144 23.8439L9.26821 21.9996L8.94234 22.3788ZM8.93762 21.5501C8.68952 21.7744 8.68427 22.1539 8.94103 22.3776L9.26952 22.0007C9.25322 21.9865 9.25 21.9733 9.25 21.9641C9.25 21.9546 9.25362 21.9385 9.27293 21.921L8.93762 21.5501ZM9.77146 21.5473C9.53866 21.344 9.16969 21.3399 8.93741 21.5503L9.27314 21.9209C9.31148 21.8861 9.39459 21.882 9.44253 21.9239L9.77146 21.5473ZM11.3075 22.8445L9.76829 21.5446L9.44569 21.9266L10.9849 23.2265L11.3075 22.8445ZM10.8937 12.1259L10.8962 23.0355L11.3962 23.0354L11.3937 12.1258L10.8937 12.1259ZM11.5 11.5583C11.1954 11.5583 10.8937 11.7833 10.8937 12.1258H11.3937C11.3937 12.1165 11.3972 12.1029 11.4143 12.0878C11.4321 12.0721 11.4617 12.0583 11.5 12.0583V11.5583ZM12.1015 12.1254C12.1009 11.7877 11.8096 11.5583 11.5 11.5583V12.0583C11.5378 12.0583 11.5654 12.0717 11.5814 12.0862C11.5969 12.1002 11.6015 12.1141 11.6015 12.1263L12.1015 12.1254ZM12.1041 23.0354L12.1015 12.1258L11.6015 12.1259L11.6041 23.0355L12.1041 23.0354ZM13.2371 21.5444L11.6931 22.8442L12.0151 23.2267L13.5591 21.9268L13.2371 21.5444ZM14.0624 21.5501C13.8317 21.3416 13.4609 21.3413 13.2302 21.5503L13.5659 21.9209C13.6059 21.8847 13.6865 21.8844 13.7271 21.921L14.0624 21.5501Z" fill="#616F82"/>
</svg>
