<svg width="40" height="40" viewBox="0 0 40 40" fill="none" xmlns="http://www.w3.org/2000/svg">
<rect opacity="0.7" width="40" height="40" rx="20" fill="#F1F2F3"/>
<path fill-rule="evenodd" clip-rule="evenodd" d="M23.0137 15.4245C23.0137 16.7635 24.0767 17.849 25.3881 17.849C26.6995 17.849 27.7626 16.7635 27.7626 15.4245C27.7626 14.0855 26.6995 13 25.3881 13C24.0767 13 23.0137 14.0855 23.0137 15.4245ZM28 20.7266V27H22.8489V22.1248L22.0259 22.5932H20.0234C20.4584 22.3885 20.7603 21.9394 20.7603 21.4183C20.7603 20.9608 20.5276 20.5589 20.1766 20.329H21.621L23.7138 18.8604C24.1689 18.4145 24.7867 18.1404 25.4673 18.1404C26.8205 18.1404 27.9258 19.224 27.9964 20.5878L28 20.5913V20.7266ZM20.2666 21.4605C20.2666 22.06 19.8099 22.5506 19.2324 22.5894L19.2326 22.5932H17.9741L17.1511 22.1248V27H12V20.7266V20.5913L12.0036 20.5878C12.0742 19.224 13.1795 18.1404 14.5327 18.1404C15.2133 18.1404 15.8311 18.4145 16.2862 18.8604L18.379 20.329H19.1585C19.7705 20.329 20.2666 20.8356 20.2666 21.4605ZM14.6119 17.849C15.9233 17.849 16.9863 16.7635 16.9863 15.4245C16.9863 14.0855 15.9233 13 14.6119 13C13.3005 13 12.2374 14.0855 12.2374 15.4245C12.2374 16.7635 13.3005 17.849 14.6119 17.849Z" fill="#616F82"/>
</svg>

