<svg width="34" height="34" viewBox="0 0 34 34" fill="none" xmlns="http://www.w3.org/2000/svg">
<rect width="34" height="34" rx="17" fill="#F1F2F3"/>
<g clip-path="url(#clip0_3_8763)">
<path fill-rule="evenodd" clip-rule="evenodd" d="M22.2641 21.2379L24.7871 23.761C25.071 24.0448 25.071 24.5035 24.7872 24.7873C24.6456 24.9289 24.4598 25 24.274 25C24.0881 25 23.9023 24.9289 23.7608 24.7873L21.2378 22.2643L22.2641 21.2379ZM21.311 20.1555C22.2361 18.9815 22.7909 17.503 22.7909 15.8956C22.7909 12.0936 19.6974 9 15.8954 9C12.0935 9 9 12.0935 9 15.8955C9 19.6975 12.0935 22.7911 15.8955 22.7911C17.4143 22.7911 18.8181 22.2957 19.9586 21.4606L19.9576 21.4597C19.9576 21.4597 20.4889 21.0253 20.7818 20.7324C21.0522 20.462 21.278 20.1949 21.311 20.1555ZM10.4517 15.8955C10.4517 18.8976 12.8934 21.3394 15.8955 21.3394C18.8975 21.3394 21.3393 18.8976 21.3393 15.8955C21.3393 12.8934 18.8975 10.4517 15.8955 10.4517C12.8934 10.4517 10.4517 12.8934 10.4517 15.8955Z" fill="#616F82"/>
</g>
<defs>
<clipPath id="clip0_3_8763">
<rect width="16" height="16" fill="white" transform="translate(9 9)"/>
</clipPath>
</defs>
</svg>
