<svg width="16" height="16" viewBox="0 0 21 20" fill="none" xmlns="http://www.w3.org/2000/svg">
<path fill-rule="evenodd" clip-rule="evenodd" d="M9.58069 2.86795C10.2252 1.71068 11.8562 1.71068 12.5007 2.86795L12.5008 2.86802L19.8609 16.0888L19.861 16.0889C20.4823 17.2047 19.7253 18.6646 18.4009 18.6646H3.68047C2.3561 18.6646 1.59909 17.2047 2.22041 16.0889L2.22046 16.0888L9.58064 2.86802L9.58069 2.86795ZM10.5791 3.424L3.21896 16.6448L3.21892 16.6449C2.98705 17.0612 3.29835 17.5217 3.68047 17.5217H18.4009C18.7831 17.5217 19.0943 17.0612 18.8625 16.6449L18.8624 16.6448L11.5023 3.424C11.2935 3.04914 10.7879 3.04914 10.5791 3.424ZM11.0417 7.27547C11.5129 7.27547 11.894 7.68697 11.8801 8.18223L11.7415 13.2659C11.7311 13.6665 11.4193 13.9833 11.0382 13.9833C10.6571 13.9833 10.3453 13.6628 10.3349 13.2659L10.1998 8.18223C10.1894 7.68697 10.567 7.27547 11.0417 7.27547ZM10.1562 15.5527C10.1562 16.0589 10.5478 16.4704 11.0293 16.4704C11.5109 16.4704 11.9024 16.0589 11.9024 15.5527C11.9024 15.0465 11.5109 14.635 11.0293 14.635C10.5478 14.635 10.1562 15.0465 10.1562 15.5527Z" fill="#EC8532"/>
</svg>
